HIERARCHY
ROOT joint_Root
{
	OFFSET 0.0 0.0 0.0
	CHANNELS 6 Xposition Yposition Zposition Zrotation Xrotation Yrotation 
	JOINT Hips
	{
		OFFSET 4.5925 91.4895 -427.239
		CHANNELS 6 Xposition Yposition Zposition Zrotation Xrotation Yrotation 
		JOINT Spine
		{
			OFFSET 15.7357 0.0 0.0
			CHANNELS 6 Xposition Yposition Zposition Zrotation Xrotation Yrotation 
			JOINT Chest
			{
				OFFSET 8.98455 -0.406207 0.0
				CHANNELS 6 Xposition Yposition Zposition Zrotation Xrotation Yrotation 
				JOINT Neck
				{
					OFFSET 16.3773 0.0 0.0
					CHANNELS 6 Xposition Yposition Zposition Zrotation Xrotation Yrotation 
					JOINT Head
					{
						OFFSET 6.45672 0.0 0.0
						CHANNELS 6 Xposition Yposition Zposition Zrotation Xrotation Yrotation 
						End Site
						{
							OFFSET 0.0 0.0 0.0
						}
					}
				}
				JOINT Shoulder_L
				{
					OFFSET 12.9942 -0.242716 4.98039
					CHANNELS 6 Xposition Yposition Zposition Zrotation Xrotation Yrotation 
					JOINT UpperArm_L
					{
						OFFSET 5.34809 0.0 0.0
						CHANNELS 6 Xposition Yposition Zposition Zrotation Xrotation Yrotation 
						JOINT LowerArm_L
						{
							OFFSET 24.3286 1.87007e-05 0.0
							CHANNELS 6 Xposition Yposition Zposition Zrotation Xrotation Yrotation 
							JOINT Hand_L
							{
								OFFSET 22.2916 0.0 0.0
								CHANNELS 6 Xposition Yposition Zposition Zrotation Xrotation Yrotation 
								End Site
								{
									OFFSET 0.0 0.0 0.0
								}
							}
						}
					}
				}
				JOINT Shoulder_R
				{
					OFFSET 12.9945 -0.242716 -4.98039
					CHANNELS 6 Xposition Yposition Zposition Zrotation Xrotation Yrotation 
					JOINT UpperArm_R
					{
						OFFSET -5.34813 0.0 0.0
						CHANNELS 6 Xposition Yposition Zposition Zrotation Xrotation Yrotation 
						JOINT LowerArm_R
						{
							OFFSET -24.3289 0.000322201 0.0
							CHANNELS 6 Xposition Yposition Zposition Zrotation Xrotation Yrotation 
							JOINT Hand_R
							{
								OFFSET -22.2915 -0.000108084 0.0
								CHANNELS 6 Xposition Yposition Zposition Zrotation Xrotation Yrotation 
								End Site
								{
									OFFSET 0.0 0.0 0.0
								}
							}
						}
					}
				}
			}
		}
		JOINT UpperLeg_L
		{
			OFFSET -2.19248 -6.46944 0.0
			CHANNELS 6 Xposition Yposition Zposition Zrotation Xrotation Yrotation 
			JOINT LowerLeg_L
			{
				OFFSET 39.0811 0.0 -1.23785e-05
				CHANNELS 6 Xposition Yposition Zposition Zrotation Xrotation Yrotation 
				JOINT Foot_L
				{
					OFFSET 40.9854 0.0 -1.26872e-05
					CHANNELS 6 Xposition Yposition Zposition Zrotation Xrotation Yrotation 
					JOINT Toes_L
					{
						OFFSET 11.7543 0.0 0.0
						CHANNELS 6 Xposition Yposition Zposition Zrotation Xrotation Yrotation 
						End Site
						{
							OFFSET 0.0 0.0 0.0
						}
					}
				}
			}
		}
		JOINT UpperLeg_R
		{
			OFFSET -2.19251 6.46944 0.0
			CHANNELS 6 Xposition Yposition Zposition Zrotation Xrotation Yrotation 
			JOINT LowerLeg_R
			{
				OFFSET -39.0811 -0.00228153 -0.0401928
				CHANNELS 6 Xposition Yposition Zposition Zrotation Xrotation Yrotation 
				JOINT Foot_R
				{
					OFFSET -40.9854 0.0 0.0
					CHANNELS 6 Xposition Yposition Zposition Zrotation Xrotation Yrotation 
					JOINT Toes_R
					{
						OFFSET -11.7543 0.0 0.0
						CHANNELS 6 Xposition Yposition Zposition Zrotation Xrotation Yrotation 
						End Site
						{
							OFFSET 0.0 0.0 0.0
						}
					}
				}
			}
		}
	}
}
MOTION
Frames:	5
Frame Time:	0.0333333
0.000000 0.000000 0.000000 0.000000 0.000000 -0.000000 -2.307090 80.704600 43.915200 -94.163000 -4.422440 171.504000 15.735700 0.000005 -0.000001 83.424900 81.260300 -86.301200 8.984550 -0.406207 -0.000000 9.557980 -2.034850 -5.578300 16.377300 -0.000001 -0.000001 -5.354080 -4.011190 1.357700 6.456720 -0.000001 -0.000000 -7.241260 -5.473140 6.946670 12.994200 -0.242716 4.980390 -90.911100 2.927240 -72.712100 5.348090 -0.000007 -0.000001 -60.976600 15.170200 -24.748600 24.328600 0.000019 0.000005 15.667400 3.702190 -77.026300 22.291600 -0.000001 0.000005 1.199330 5.493370 -6.268010 12.994500 -0.242716 -4.980390 87.737000 11.277000 -78.574700 -5.348130 -0.000001 -0.000004 -60.435600 31.730100 3.992620 -24.328900 0.000322 -0.000009 -14.360500 -19.651500 -37.277500 -22.291500 -0.000108 -0.000004 7.306890 5.522100 -7.463880 -2.192480 -6.469440 -0.000000 169.230000 -3.005200 -37.419800 39.081100 -0.000007 -0.000012 -0.917473 0.442834 64.237300 40.985400 -0.000006 -0.000013 5.504350 -5.211720 -85.465200 11.754300 -0.000000 0.000003 -0.000042 -0.000482 -16.596300 -2.192510 6.469440 -0.000001 174.540000 9.481300 138.843000 -39.081100 -0.002282 -0.040193 -0.043908 -0.050212 136.695000 -40.985400 0.000008 0.000006 -4.539330 1.357930 6.494440 -11.754300 -0.000006 -0.000006 -0.014789 -0.136483 -22.141300
0.000000 0.000000 0.000000 0.000000 0.000000 -0.000000 -1.961760 80.773600 32.063400 -91.798400 -8.643440 171.330000 15.735700 0.000005 -0.000001 72.040300 81.128300 -73.482500 8.984550 -0.406207 -0.000000 9.075860 -5.458330 -2.449970 16.377300 -0.000001 -0.000001 -4.904990 -3.976880 0.767590 6.456720 -0.000001 -0.000000 -6.680790 -3.799700 6.561000 12.994200 -0.242716 4.980390 -89.806700 -0.662405 -73.725700 5.348090 -0.000007 -0.000001 -58.821700 17.040800 -35.492800 24.328600 0.000019 0.000005 12.467400 0.650772 -87.078600 22.291600 -0.000001 0.000005 0.772181 5.472000 -5.446080 12.994500 -0.242716 -4.980390 87.443900 9.877340 -75.411200 -5.348130 -0.000001 -0.000004 -64.206100 37.326900 16.575100 -24.328900 0.000322 -0.000009 -13.070600 -15.558500 -40.875400 -22.291500 -0.000108 -0.000004 3.985440 5.534890 -8.015610 -2.192480 -6.469440 -0.000000 174.410000 -2.922550 -26.015200 39.081100 -0.000007 -0.000012 -1.025790 0.578133 60.597700 40.985400 -0.000006 -0.000013 5.110670 -1.794770 -93.376700 11.754300 -0.000000 0.000003 -0.000010 -0.000138 -16.583000 -2.192510 6.469440 -0.000001 179.822000 9.475570 125.985000 -39.081100 -0.002282 -0.040193 -0.386550 -0.437445 138.283000 -40.985400 0.000008 0.000006 -3.149320 3.221640 0.293670 -11.754300 -0.000006 -0.000006 -0.014478 -0.134503 -22.060000
0.000000 0.000000 0.000000 0.000000 0.000000 -0.000000 -1.237020 83.276900 18.955700 -87.405800 -10.872300 170.319000 15.735700 0.000005 -0.000001 61.143900 81.418400 -60.531400 8.984550 -0.406207 -0.000000 7.368670 -8.254740 1.757800 16.377300 -0.000001 -0.000001 -3.907080 -3.586470 0.347154 6.456720 -0.000001 -0.000000 -6.111010 -1.553650 5.535140 12.994200 -0.242716 4.980390 -89.125900 -2.882970 -73.127200 5.348090 -0.000007 -0.000001 -58.800700 16.590400 -39.350000 24.328600 0.000019 0.000005 8.860940 -1.067400 -96.820600 22.291600 -0.000001 0.000005 1.222010 5.452210 -4.719150 12.994500 -0.242716 -4.980390 87.675000 7.522810 -72.766500 -5.348130 -0.000001 -0.000004 -68.114900 39.311600 26.713700 -24.328900 0.000322 -0.000009 -12.097000 -12.505600 -44.708600 -22.291500 -0.000108 -0.000004 1.341860 5.533700 -7.959770 -2.192480 -6.469440 -0.000000 -178.300000 -4.296140 -13.066300 39.081100 -0.000007 -0.000012 0.143759 -0.127552 48.417700 40.985400 -0.000006 -0.000013 8.878150 0.554814 -87.927700 11.754300 -0.000000 0.000003 -0.873962 -0.983258 -24.889900 -2.192510 6.469440 -0.000001 -172.571000 7.348830 120.601000 -39.081100 -0.002282 -0.040193 -0.452371 -0.374290 129.390000 -40.985400 0.000008 0.000006 4.009080 -1.716390 -16.550000 -11.754300 -0.000006 -0.000006 -0.013238 -0.126423 -21.728600
0.000000 0.000000 0.000000 0.000000 0.000000 -0.000000 -0.684072 87.453700 5.935440 -83.576000 -12.381500 166.833000 15.735700 0.000005 -0.000001 48.744400 82.353700 -46.116200 8.984550 -0.406207 -0.000000 4.022300 -10.156100 5.618940 16.377300 -0.000001 -0.000001 -2.922140 -3.402580 0.327141 6.456720 -0.000001 -0.000000 -5.388950 0.174872 4.604700 12.994200 -0.242716 4.980390 -88.511400 -4.686410 -72.356900 5.348090 -0.000007 -0.000001 -61.399800 17.223600 -38.660900 24.328600 0.000019 0.000005 7.770080 -1.904720 -103.689000 22.291600 -0.000001 0.000005 -0.709685 5.434620 -4.093020 12.994500 -0.242716 -4.980390 88.455700 4.447100 -70.824200 -5.348130 -0.000001 -0.000004 -71.012300 36.118100 33.740100 -24.328900 0.000322 -0.000009 -8.368650 -7.971460 -46.688200 -22.291500 -0.000108 -0.000004 1.244070 5.542350 -8.349640 -2.192480 -6.469440 -0.000000 -171.562000 -4.444880 -6.149270 39.081100 -0.000007 -0.000012 0.041178 -0.055161 36.740300 40.985400 -0.000006 -0.000013 4.644900 4.967190 -66.219100 11.754300 -0.000000 0.000003 -0.212870 -0.666077 -45.224300 -2.192510 6.469440 -0.000001 -167.589000 2.816940 116.754000 -39.081100 -0.002282 -0.040193 -0.257938 -0.114949 113.731000 -40.985400 0.000008 0.000006 8.225880 -7.533710 -35.707300 -11.754300 -0.000006 -0.000006 -0.012022 -0.118173 -21.390600
0.000000 0.000000 0.000000 0.000000 0.000000 -0.000000 -0.642404 91.547400 -6.857930 -84.025400 -11.327900 165.730000 15.735700 0.000005 -0.000001 43.340800 82.502800 -40.487900 8.984550 -0.406207 -0.000000 2.854180 -11.017900 5.988920 16.377300 -0.000001 -0.000001 -2.172080 -3.039680 0.473383 6.456720 -0.000001 -0.000000 -5.849030 1.744140 4.296400 12.994200 -0.242716 4.980390 -88.236200 -5.221780 -71.306700 5.348090 -0.000007 -0.000001 -62.760500 18.600600 -37.320100 24.328600 0.000019 0.000005 8.338020 -2.699200 -107.812000 22.291600 -0.000001 0.000005 -1.593420 5.403920 -3.065120 12.994500 -0.242716 -4.980390 89.205400 2.149610 -69.705000 -5.348130 -0.000001 -0.000004 -72.571000 31.815200 37.775600 -24.328900 0.000322 -0.000009 -8.529140 -7.464740 -49.093700 -22.291500 -0.000108 -0.000004 1.626600 5.551900 -8.795000 -2.192480 -6.469440 -0.000000 -168.219000 -12.370400 1.026690 39.081100 -0.000007 -0.000012 0.026728 -0.054467 26.138200 40.985400 -0.000006 -0.000013 -3.236470 10.474000 -36.948900 11.754300 -0.000000 0.000003 -0.107159 -0.461992 -35.895500 -2.192510 6.469440 -0.000001 -169.331000 -0.531791 118.099000 -39.081100 -0.002282 -0.040193 -0.063306 -0.004590 93.866700 -40.985400 0.000008 0.000006 7.666400 -11.883100 -46.799700 -11.754300 -0.000006 -0.000006 -0.012319 -0.120218 -21.474300
